<svg width="40" height="41" viewBox="0 0 40 41" fill="none" xmlns="http://www.w3.org/2000/svg">
<rect width="40" height="41" fill="#E5E5E5"/>
<g id="Home" clip-path="url(#clip0_0_1)">
<rect width="1440" height="5015" transform="translate(-580 -1327)" fill="white"/>
<g id="Process">
<g id="Group 21">
<g id="step 2">
<g id="Rectangle 7" opacity="0.04" filter="url(#filter0_d_0_1)">
<rect x="-45" y="-45" width="370" height="308" rx="14" fill="white"/>
</g>
<g id="Group 20">
<rect id="Rectangle 8" x="-15" y="-15" width="70" height="70" rx="10" fill="#ECF9FF" fill-opacity="0.8"/>
<g id="Rectangle 9" filter="url(#filter1_f_0_1)">
<rect x="7" y="20" width="27" height="27" rx="10" fill="#56C7FF" fill-opacity="0.3"/>
</g>
<g id="calendar" clip-path="url(#clip1_0_1)">
<path id="Vector" d="M31.7676 40.315H0V10.0787H40V32.0177L31.7676 40.315Z" fill="white"/>
<path id="Vector_2" d="M0 10.0787H40V15.1181H0V10.0787Z" fill="#DCE9FF"/>
<path id="Vector_3" d="M7.5 5.03937H5V1.25984C5 0.564099 5.55969 0 6.25 0C6.94031 0 7.5 0.564099 7.5 1.25984V5.03937Z" fill="#D0DCEE"/>
<path id="Vector_4" d="M35 5.03937H32.5V1.25984C32.5 0.564099 33.0597 0 33.75 0C34.4403 0 35 0.564099 35 1.25984V5.03937Z" fill="#D0DCEE"/>
<path id="Vector_5" d="M31.7676 32.0177V40.3149L40 32.0177H31.7676Z" fill="#DBE6F8"/>
<path id="Vector_6" d="M17.5926 31.9246L11.4451 26.9682C10.9058 26.5333 10.8183 25.7404 11.2501 25.1969C11.6816 24.6534 12.4683 24.5651 13.0076 25.0003L17.4076 28.548L26.9825 18.8977C27.4708 18.4059 28.2621 18.4059 28.7501 18.8977C29.2381 19.3895 29.2381 20.187 28.7501 20.6792L17.5926 31.9246Z" fill="#0AC1A7"/>
<path id="Vector_7" d="M40 12.5984H0V6.29923C0 4.90774 1.11938 3.77954 2.5 3.77954H37.5C38.8806 3.77954 40 4.90774 40 6.29923V12.5984Z" fill="#FF3132"/>
</g>
</g>
</g>
</g>
</g>
</g>
<defs>
<filter id="filter0_d_0_1" x="-95" y="-65" width="470" height="408" filterUnits="userSpaceOnUse" color-interpolation-filters="sRGB">
<feFlood flood-opacity="0" result="BackgroundImageFix"/>
<feColorMatrix in="SourceAlpha" type="matrix" values="0 0 0 0 0 0 0 0 0 0 0 0 0 0 0 0 0 0 127 0" result="hardAlpha"/>
<feOffset dy="30"/>
<feGaussianBlur stdDeviation="25"/>
<feComposite in2="hardAlpha" operator="out"/>
<feColorMatrix type="matrix" values="0 0 0 0 0.0103299 0 0 0 0 0.0103299 0 0 0 0 0.145833 0 0 0 1 0"/>
<feBlend mode="normal" in2="BackgroundImageFix" result="effect1_dropShadow_0_1"/>
<feBlend mode="normal" in="SourceGraphic" in2="effect1_dropShadow_0_1" result="shape"/>
</filter>
<filter id="filter1_f_0_1" x="-8" y="5" width="57" height="57" filterUnits="userSpaceOnUse" color-interpolation-filters="sRGB">
<feFlood flood-opacity="0" result="BackgroundImageFix"/>
<feBlend mode="normal" in="SourceGraphic" in2="BackgroundImageFix" result="shape"/>
<feGaussianBlur stdDeviation="7.5" result="effect1_foregroundBlur_0_1"/>
</filter>
<clipPath id="clip0_0_1">
<rect width="1440" height="5015" fill="white" transform="translate(-580 -1327)"/>
</clipPath>
<clipPath id="clip1_0_1">
<rect width="40" height="40.315" fill="white"/>
</clipPath>
</defs>
</svg>
